<?xml version="1.0" encoding="utf-8"?>
<!-- Simple, modern SVG icon for "YunThinker docs" -->
<svg xmlns="http://www.w3.org/2000/svg" viewBox="0 0 64 64" width="512" height="512" role="img" aria-labelledby="title desc">
  <title id="title">YunThinker 图标</title>
  <desc id="desc">简洁的云 + 书本图标，适合作为文档站点图标（SVG）</desc>
  <!-- 背景圆 -->
  <circle cx="32" cy="32" r="30" fill="#E63946" />

  <!-- 云：白色 -->
  <g transform="translate(0,2)" fill="#FFFFFF">
    <path d="M44.6 29.3c0-3.4-2.8-6.2-6.2-6.2-0.9 0-1.8 0.2-2.6 0.6-1.3-2.6-4-4.4-7-4.4-3.9 0-7.1 2.8-7.8 6.5-0.9-0.3-1.9-0.5-2.9-0.5-4.1 0-7.4 3.3-7.4 7.4 0 4 3.1 7.3 7 7.4v0h26.9c2.8 0 5-2.2 5-5 0-2.7-2.1-4.8-4.9-5z"/>
  </g>

  <!-- 打开的书：白色，简洁线条 -->
  <g transform="translate(6,26)" fill="#FFFFFF">
    <path d="M6 12c0-0.6 0.4-1 1-1 3.3-0.1 7.6-0.2 12-0.2 4.4 0 8.7 0.1 12 0.2 0.6 0 1 0.5 1 1v6c0 0.6-0.4 1-1 1-3.3 0-7.6-0.1-12-0.1-4.4 0-8.7 0.1-12 0.1-0.6 0-1-0.4-1-1v-6z"/>
    <path d="M7 12V6c0-0.6 0.4-1 1-1 3.3-0.1 7.6-0.2 12-0.2s8.7 0.1 12 0.2c0.6 0 1 0.5 1 1v6c-3.3-0.1-7.6-0.1-12-0.1s-8.7 0-12 0.1c-0.6 0-1-0.4-1-1z" opacity="0.95"/>
    <!-- 页缝（细线） -->
    <path d="M23 6v12" stroke="#E63946" stroke-width="1.6" stroke-linecap="round" fill="none"/>
  </g>
</svg>
